<?xml version="1.0" encoding="UTF-8"?>
<!-- Do not edit this file with editors other than diagrams.net -->
<svg xmlns="http://www.w3.org/2000/svg" xmlns:xlink="http://www.w3.org/1999/xlink" version="1.1" width="381px" height="311px" viewBox="-0.5 -0.5 381 311" style="background-color: rgb(255, 255, 255);">
  <defs></defs>
  <g>
    <path d="M 49.5 121 L 316.39 121" fill="none" stroke="rgb(0, 0, 0)" stroke-miterlimit="10"></path>
    <path d="M 323.39 121 L 316.39 124.5 L 316.39 117.5 Z" fill="rgb(0, 0, 0)" stroke="rgb(0, 0, 0)" stroke-miterlimit="10"></path>
    <rect x="140" y="0" width="100" height="40" rx="6" ry="6" fill="rgb(255, 255, 255)" stroke="rgb(0, 0, 0)"></rect>
    <path d="M 190 40 L 190 310" fill="none" stroke="rgb(0, 0, 0)" stroke-miterlimit="10" stroke-dasharray="3 3"></path>
    <g transform="translate(-0.5 -0.5)">
      <switch>
        <text x="190" y="24" fill="rgb(0, 0, 0)" font-family="Helvetica" font-size="12px" text-anchor="middle">Thread 1</text>
      </switch>
    </g>
    <rect x="185" y="265" width="10" height="35" fill="rgb(255, 255, 255)" stroke="rgb(0, 0, 0)"></rect>
    <rect x="185" y="100" width="10" height="80" fill="rgb(255, 255, 255)" stroke="rgb(0, 0, 0)"></rect>
    <rect x="150" y="120" width="80" height="30" fill="none" stroke="none" transform="rotate(90,190,135)"></rect>
    <g transform="translate(-0.5 -0.5)rotate(90 190 135)">
      <switch>
        <text x="190" y="139" fill="rgb(0, 0, 0)" font-family="Helvetica" font-size="12px" text-anchor="middle">Walk Stack</text>
      </switch>
    </g>
    <path d="M 55 265 L 110 265 Q 120 265 130 265 L 176.88 265" fill="none" stroke="rgb(0, 0, 0)" stroke-miterlimit="10"></path>
    <path d="M 183.88 265 L 176.88 268.5 L 176.88 261.5 Z" fill="rgb(0, 0, 0)" stroke="rgb(0, 0, 0)" stroke-miterlimit="10"></path>
    <g transform="translate(-0.5 -0.5)">
      <switch>
        <text x="120" y="262" fill="rgb(0, 0, 0)" font-family="Helvetica" font-size="12px" text-anchor="middle">signal</text>
      </switch>
    </g>
    <rect x="280" y="0" width="100" height="40" rx="6" ry="6" fill="rgb(255, 255, 255)" stroke="rgb(0, 0, 0)"></rect>
    <path d="M 330 40 L 330 300" fill="none" stroke="rgb(0, 0, 0)" stroke-miterlimit="10" stroke-dasharray="3 3"></path>
    <g transform="translate(-0.5 -0.5)">
      <switch>
        <text x="330" y="24" fill="rgb(0, 0, 0)" font-family="Helvetica" font-size="12px" text-anchor="middle">Thread 2</text>
      </switch>
    </g>
    <rect x="325" y="120" width="10" height="80" fill="rgb(255, 255, 255)" stroke="rgb(0, 0, 0)"></rect>
    <rect x="290" y="145" width="80" height="30" fill="none" stroke="none" transform="rotate(90,330,160)"></rect>
    <g transform="translate(-0.5 -0.5)rotate(90 330 160)">
      <switch>
        <text x="330" y="164" fill="rgb(0, 0, 0)" font-family="Helvetica" font-size="12px" text-anchor="middle">Walk Stack</text>
      </switch>
    </g>
    <rect x="0" y="0" width="100" height="40" rx="6" ry="6" fill="rgb(255, 255, 255)" stroke="rgb(0, 0, 0)"></rect>
    <path d="M 50 40 L 50 300" fill="none" stroke="rgb(0, 0, 0)" stroke-miterlimit="10" stroke-dasharray="3 3"></path>
    <g transform="translate(-0.5 -0.5)">
      <switch>
        <text x="50" y="24" fill="rgb(0, 0, 0)" font-family="Helvetica" font-size="12px" text-anchor="middle">Sampler</text>
      </switch>
    </g>
    <rect x="45" y="90" width="10" height="210" fill="rgb(255, 255, 255)" stroke="rgb(0, 0, 0)"></rect>
    <rect x="50" y="140" width="10" height="102" fill="rgb(255, 255, 255)" stroke="rgb(0, 0, 0)"></rect>
    <rect x="30" y="176" width="50" height="30" fill="none" stroke="none" transform="rotate(90,55,191)"></rect>
    <g transform="translate(-0.5 -0.5)rotate(90 55 191)">
      <switch>
        <text x="55" y="195" fill="rgb(0, 0, 0)" font-family="Helvetica" font-size="12px" text-anchor="middle">sleep</text>
      </switch>
    </g>
    <path d="M 55 100 L 176.88 100" fill="none" stroke="rgb(0, 0, 0)" stroke-miterlimit="10"></path>
    <path d="M 183.88 100 L 176.88 103.5 L 176.88 96.5 Z" fill="rgb(0, 0, 0)" stroke="rgb(0, 0, 0)" stroke-miterlimit="10"></path>
    <g transform="translate(-0.5 -0.5)">
      <switch>
        <text x="120" y="97" fill="rgb(0, 0, 0)" font-family="Helvetica" font-size="12px" text-anchor="middle">signal</text>
      </switch>
    </g>
    <rect x="250" y="95" width="50" height="30" fill="none" stroke="none"></rect>
    <g transform="translate(-0.5 -0.5)">
      <switch>
        <text x="275" y="114" fill="rgb(0, 0, 0)" font-family="Helvetica" font-size="12px" text-anchor="middle">signal</text>
      </switch>
    </g>
    <rect x="30" y="276" width="320" height="34" fill="rgb(255, 255, 255)" stroke="none"></rect>
    <rect x="170" y="270" width="40" height="30" fill="none" stroke="none"></rect>
    <g transform="translate(-0.5 -0.5)">
      <switch>
        <text x="190" y="289" fill="rgb(0, 0, 0)" font-family="Helvetica" font-size="12px" text-anchor="middle">...</text>
      </switch>
    </g>
  </g>
  <switch>
    <g></g>
    <a transform="translate(0,-5)" xlink:href="https://www.diagrams.net/doc/faq/svg-export-text-problems">
      <text text-anchor="middle" font-size="10px" x="50%" y="100%">Text is not SVG - cannot display</text>
    </a>
  </switch>
</svg>
