<?xml version="1.0" encoding="UTF-8"?>
<!-- Do not edit this file with editors other than diagrams.net -->
<svg xmlns="http://www.w3.org/2000/svg" xmlns:xlink="http://www.w3.org/1999/xlink" version="1.1" width="381px" height="365px" viewBox="-0.5 -0.5 381 365" style="background-color: rgb(255, 255, 255);">
  <defs></defs>
  <g>
    <rect x="140" y="0" width="100" height="40" rx="6" ry="6" fill="rgb(255, 255, 255)" stroke="rgb(0, 0, 0)"></rect>
    <path d="M 190 40 L 190 350" fill="none" stroke="rgb(0, 0, 0)" stroke-miterlimit="10" stroke-dasharray="3 3"></path>
    <g transform="translate(-0.5 -0.5)">
      <switch>
        <text x="190" y="24" fill="rgb(0, 0, 0)" font-family="Helvetica" font-size="12px" text-anchor="middle">Thread 1</text>
      </switch>
    </g>
    <rect x="185" y="100" width="10" height="100" fill="rgb(255, 255, 255)" stroke="rgb(0, 0, 0)"></rect>
    <rect x="165" y="135" width="50" height="30" fill="none" stroke="none" transform="rotate(90,190,150)"></rect>
    <g transform="translate(-0.5 -0.5)rotate(90 190 150)">
      <switch>
        <text x="190" y="154" fill="rgb(0, 0, 0)" font-family="Helvetica" font-size="12px" text-anchor="middle">block</text>
      </switch>
    </g>
    <path d="M 55 220 L 317.28 220" fill="none" stroke="rgb(0, 0, 0)" stroke-miterlimit="10"></path>
    <path d="M 324.28 220 L 317.28 223.5 L 317.28 216.5 Z" fill="rgb(0, 0, 0)" stroke="rgb(0, 0, 0)" stroke-miterlimit="10"></path>
    <g transform="translate(-0.5 -0.5)">
      <switch>
        <text x="260" y="217" fill="rgb(0, 0, 0)" font-family="Helvetica" font-size="12px" text-anchor="middle">signal</text>
      </switch>
    </g>
    <path d="M 316.88 320.16 L 54 319" fill="none" stroke="rgb(0, 0, 0)" stroke-miterlimit="10" stroke-dasharray="1 3"></path>
    <path d="M 323.88 320.2 L 316.87 323.66 L 316.9 316.66 Z" fill="rgb(0, 0, 0)" stroke="rgb(0, 0, 0)" stroke-miterlimit="10"></path>
    <g transform="translate(-0.5 -0.5)">
      <switch>
        <text x="190" y="313" fill="rgb(0, 0, 0)" font-family="Helvetica" font-size="11px" text-anchor="middle">unblock</text>
      </switch>
    </g>
    <rect x="280" y="0" width="100" height="40" rx="6" ry="6" fill="rgb(255, 255, 255)" stroke="rgb(0, 0, 0)"></rect>
    <path d="M 330 40 L 330 350" fill="none" stroke="rgb(0, 0, 0)" stroke-miterlimit="10" stroke-dasharray="3 3"></path>
    <g transform="translate(-0.5 -0.5)">
      <switch>
        <text x="330" y="24" fill="rgb(0, 0, 0)" font-family="Helvetica" font-size="12px" text-anchor="middle">Thread 2</text>
      </switch>
    </g>
    <rect x="0" y="0" width="110" height="40" rx="6" ry="6" fill="rgb(255, 255, 255)" stroke="rgb(0, 0, 0)"></rect>
    <path d="M 55 40 L 55 340" fill="none" stroke="rgb(0, 0, 0)" stroke-miterlimit="10" stroke-dasharray="3 3"></path>
    <g transform="translate(-0.5 -0.5)">
      <switch>
        <text x="55" y="24" fill="rgb(0, 0, 0)" font-family="Helvetica" font-size="12px" text-anchor="middle">Sampler</text>
      </switch>
    </g>
    <rect x="50" y="90" width="10" height="250" fill="rgb(255, 255, 255)" stroke="rgb(0, 0, 0)"></rect>
    <rect x="55" y="110" width="10" height="80" fill="rgb(255, 255, 255)" stroke="rgb(0, 0, 0)"></rect>
    <rect x="15" y="135" width="90" height="30" fill="none" stroke="none" transform="rotate(90,60,150)"></rect>
    <g transform="translate(-0.5 -0.5)rotate(90 60 150)">
      <switch>
        <text x="60" y="154" fill="rgb(0, 0, 0)" font-family="Helvetica" font-size="12px" text-anchor="middle">walk thread 1</text>
      </switch>
    </g>
    <path d="M 60 100.2 L 176.88 100.2" fill="none" stroke="rgb(0, 0, 0)" stroke-miterlimit="10"></path>
    <path d="M 183.88 100.2 L 176.88 103.7 L 176.88 96.7 Z" fill="rgb(0, 0, 0)" stroke="rgb(0, 0, 0)" stroke-miterlimit="10"></path>
    <g transform="translate(-0.5 -0.5)">
      <switch>
        <text x="122" y="97" fill="rgb(0, 0, 0)" font-family="Helvetica" font-size="12px" text-anchor="middle">signal</text>
      </switch>
    </g>
    <rect x="30" y="330" width="320" height="34" fill="rgb(255, 255, 255)" stroke="none"></rect>
    <rect x="170" y="320" width="40" height="30" fill="none" stroke="none"></rect>
    <g transform="translate(-0.5 -0.5)">
      <switch>
        <text x="190" y="339" fill="rgb(0, 0, 0)" font-family="Helvetica" font-size="12px" text-anchor="middle">...</text>
      </switch>
    </g>
    <path d="M 176.88 200.22 L 60.4 200.5" fill="none" stroke="rgb(0, 0, 0)" stroke-miterlimit="10" stroke-dasharray="1 3"></path>
    <path d="M 183.88 200.2 L 176.89 203.72 L 176.87 196.72 Z" fill="rgb(0, 0, 0)" stroke="rgb(0, 0, 0)" stroke-miterlimit="10"></path>
    <g transform="translate(-0.5 -0.5)">
      <switch>
        <text x="124" y="194" fill="rgb(0, 0, 0)" font-family="Helvetica" font-size="11px" text-anchor="middle">unblock</text>
      </switch>
    </g>
    <rect x="55" y="230" width="10" height="80" fill="rgb(255, 255, 255)" stroke="rgb(0, 0, 0)"></rect>
    <rect x="325" y="220" width="10" height="100" fill="rgb(255, 255, 255)" stroke="rgb(0, 0, 0)"></rect>
    <rect x="305" y="255" width="50" height="30" fill="none" stroke="none" transform="rotate(90,330,270)"></rect>
    <g transform="translate(-0.5 -0.5)rotate(90 330 270)">
      <switch>
        <text x="330" y="274" fill="rgb(0, 0, 0)" font-family="Helvetica" font-size="12px" text-anchor="middle">block</text>
      </switch>
    </g>
    <rect x="15" y="255" width="90" height="30" fill="none" stroke="none" transform="rotate(90,60,270)"></rect>
    <g transform="translate(-0.5 -0.5)rotate(90 60 270)">
      <switch>
        <text x="60" y="274" fill="rgb(0, 0, 0)" font-family="Helvetica" font-size="12px" text-anchor="middle">walk thread 2</text>
      </switch>
    </g>
    <path d="M 324.57 230.1 L 73.12 230" fill="none" stroke="rgb(0, 0, 0)" stroke-miterlimit="10" stroke-dasharray="1 3"></path>
    <path d="M 66.12 230 L 73.12 226.5 L 73.12 233.5 Z" fill="rgb(0, 0, 0)" stroke="rgb(0, 0, 0)" stroke-miterlimit="10"></path>
    <g transform="translate(-0.5 -0.5)">
      <switch>
        <text x="263" y="244" fill="rgb(0, 0, 0)" font-family="Helvetica" font-size="11px" text-anchor="middle">blocked</text>
      </switch>
    </g>
    <path d="M 185.05 110.6 L 73.12 110.04" fill="none" stroke="rgb(0, 0, 0)" stroke-miterlimit="10" stroke-dasharray="1 3"></path>
    <path d="M 66.12 110.01 L 73.14 106.54 L 73.1 113.54 Z" fill="rgb(0, 0, 0)" stroke="rgb(0, 0, 0)" stroke-miterlimit="10"></path>
    <g transform="translate(-0.5 -0.5)">
      <switch>
        <text x="123" y="124" fill="rgb(0, 0, 0)" font-family="Helvetica" font-size="11px" text-anchor="middle">blocked</text>
      </switch>
    </g>
  </g>
  <switch>
    <g></g>
    <a transform="translate(0,-5)" xlink:href="https://www.diagrams.net/doc/faq/svg-export-text-problems">
      <text text-anchor="middle" font-size="10px" x="50%" y="100%">Text is not SVG - cannot display</text>
    </a>
  </switch>
</svg>
